<svg width="279" height="279" viewBox="0 0 279 279" fill="none" xmlns="http://www.w3.org/2000/svg">
<g clip-path="url(#clip0_856_1329)">
<path d="M273.19 126.82L151.629 5.25975C144.633 -1.73632 133.268 -1.73632 126.272 5.25975L101.038 30.4945L133.055 62.5115C140.509 60.0063 149.033 61.6866 154.959 67.6134C160.917 73.5708 162.597 82.186 160.031 89.6709L190.887 120.527C198.341 117.961 206.956 119.61 212.944 125.598C221.285 133.939 221.285 147.442 212.944 155.782C204.604 164.123 191.101 164.123 182.76 155.782C176.498 149.519 174.939 140.293 178.117 132.564L149.338 103.785V179.52C151.385 180.528 153.279 181.872 154.99 183.553C163.33 191.893 163.33 205.396 154.99 213.737C146.65 222.077 133.146 222.077 124.806 213.737C116.466 205.396 116.466 191.893 124.806 183.553C126.853 181.506 129.236 179.948 131.802 178.909V102.472C129.266 101.433 126.883 99.8748 124.806 97.8279C118.482 91.5345 116.985 82.2471 120.223 74.4873L88.6036 42.898L5.2617 126.27C-1.73437 133.267 -1.73437 144.631 5.2617 151.627L126.822 273.188C133.818 280.184 145.183 280.184 152.179 273.188L273.19 152.177C280.186 145.181 280.186 133.816 273.19 126.82Z" fill="#E84427"/>
</g>
<defs>
<clipPath id="clip0_856_1329">
<rect width="278.438" height="278.438" fill="white"/>
</clipPath>
</defs>
</svg>
